<mxfile host="app.diagrams.net" agent="Mozilla/5.0 (Windows NT 10.0; Win64; x64) AppleWebKit/537.36 (KHTML, like Gecko) Chrome/128.0.0.0 Safari/537.36" version="24.7.16">
  <diagram name="第 1 页" id="CX8cpyjUGdPXoAbcLXmA">
    <mxGraphModel dx="1050" dy="522" grid="0" gridSize="10" guides="1" tooltips="1" connect="1" arrows="1" fold="1" page="1" pageScale="1" pageWidth="827" pageHeight="1169" background="none" math="0" shadow="0">
      <root>
        <mxCell id="0" />
        <mxCell id="1" parent="0" />
        <mxCell id="M4atq5LiG9OiCV3T2xGe-1" style="edgeStyle=orthogonalEdgeStyle;rounded=0;orthogonalLoop=1;jettySize=auto;html=1;startArrow=classicThin;startFill=1;endArrow=none;endFill=0;movable=1;resizable=1;rotatable=1;deletable=1;editable=1;locked=0;connectable=1;" edge="1" parent="1" source="nI9pmFCx_meQ-iWq6jno-1">
          <mxGeometry relative="1" as="geometry">
            <mxPoint x="345" y="22.399993896484375" as="targetPoint" />
          </mxGeometry>
        </mxCell>
        <mxCell id="nI9pmFCx_meQ-iWq6jno-1" value="" style="ellipse;whiteSpace=wrap;html=1;aspect=fixed;movable=1;resizable=1;rotatable=1;deletable=1;editable=1;locked=0;connectable=1;" parent="1" vertex="1">
          <mxGeometry x="226" y="86" width="238" height="238" as="geometry" />
        </mxCell>
        <mxCell id="M4atq5LiG9OiCV3T2xGe-2" value="0" style="text;html=1;align=center;verticalAlign=middle;resizable=1;points=[];autosize=1;strokeColor=none;fillColor=none;movable=1;rotatable=1;deletable=1;editable=1;locked=0;connectable=1;" vertex="1" parent="1">
          <mxGeometry x="342" y="45" width="25" height="26" as="geometry" />
        </mxCell>
        <mxCell id="M4atq5LiG9OiCV3T2xGe-3" value="10" style="text;html=1;align=center;verticalAlign=middle;resizable=1;points=[];autosize=1;strokeColor=none;fillColor=none;movable=1;rotatable=1;deletable=1;editable=1;locked=0;connectable=1;" vertex="1" parent="1">
          <mxGeometry x="317" y="45" width="31" height="26" as="geometry" />
        </mxCell>
        <mxCell id="M4atq5LiG9OiCV3T2xGe-4" value="节点 A&lt;div&gt;hash：2&lt;/div&gt;" style="rounded=1;whiteSpace=wrap;html=1;fillColor=#dae8fc;strokeColor=#6c8ebf;movable=1;resizable=1;rotatable=1;deletable=1;editable=1;locked=0;connectable=1;" vertex="1" parent="1">
          <mxGeometry x="405" y="18" width="90" height="43" as="geometry" />
        </mxCell>
        <mxCell id="M4atq5LiG9OiCV3T2xGe-6" style="edgeStyle=orthogonalEdgeStyle;rounded=0;orthogonalLoop=1;jettySize=auto;html=1;entryX=0.73;entryY=0.066;entryDx=0;entryDy=0;entryPerimeter=0;curved=1;fillColor=#dae8fc;strokeColor=#6c8ebf;movable=1;resizable=1;rotatable=1;deletable=1;editable=1;locked=0;connectable=1;" edge="1" parent="1" source="M4atq5LiG9OiCV3T2xGe-4" target="nI9pmFCx_meQ-iWq6jno-1">
          <mxGeometry relative="1" as="geometry" />
        </mxCell>
        <mxCell id="M4atq5LiG9OiCV3T2xGe-7" value="节点 B&lt;div&gt;hash：4&lt;/div&gt;" style="rounded=1;whiteSpace=wrap;html=1;fillColor=#dae8fc;strokeColor=#6c8ebf;movable=1;resizable=1;rotatable=1;deletable=1;editable=1;locked=0;connectable=1;" vertex="1" parent="1">
          <mxGeometry x="442" y="324" width="90" height="43" as="geometry" />
        </mxCell>
        <mxCell id="M4atq5LiG9OiCV3T2xGe-9" style="edgeStyle=orthogonalEdgeStyle;rounded=0;orthogonalLoop=1;jettySize=auto;html=1;entryX=1;entryY=1;entryDx=0;entryDy=0;curved=1;fillColor=#dae8fc;strokeColor=#6c8ebf;movable=1;resizable=1;rotatable=1;deletable=1;editable=1;locked=0;connectable=1;" edge="1" parent="1" source="M4atq5LiG9OiCV3T2xGe-7" target="nI9pmFCx_meQ-iWq6jno-1">
          <mxGeometry relative="1" as="geometry">
            <Array as="points">
              <mxPoint x="485" y="304" />
              <mxPoint x="441" y="304" />
              <mxPoint x="441" y="306" />
              <mxPoint x="429" y="306" />
            </Array>
          </mxGeometry>
        </mxCell>
        <mxCell id="M4atq5LiG9OiCV3T2xGe-10" value="节点 C&lt;div&gt;hash：8&lt;/div&gt;" style="rounded=1;whiteSpace=wrap;html=1;fillColor=#dae8fc;strokeColor=#6c8ebf;movable=1;resizable=1;rotatable=1;deletable=1;editable=1;locked=0;connectable=1;" vertex="1" parent="1">
          <mxGeometry x="92" y="125" width="90" height="43" as="geometry" />
        </mxCell>
        <mxCell id="M4atq5LiG9OiCV3T2xGe-11" style="edgeStyle=orthogonalEdgeStyle;rounded=0;orthogonalLoop=1;jettySize=auto;html=1;entryX=0.052;entryY=0.254;entryDx=0;entryDy=0;entryPerimeter=0;fillColor=#dae8fc;strokeColor=#6c8ebf;movable=1;resizable=1;rotatable=1;deletable=1;editable=1;locked=0;connectable=1;" edge="1" parent="1" source="M4atq5LiG9OiCV3T2xGe-10" target="nI9pmFCx_meQ-iWq6jno-1">
          <mxGeometry relative="1" as="geometry" />
        </mxCell>
        <mxCell id="M4atq5LiG9OiCV3T2xGe-12" value="&lt;div&gt;请求 1&lt;/div&gt;&lt;div&gt;hash：6&lt;/div&gt;" style="rounded=1;whiteSpace=wrap;html=1;fillColor=#fff2cc;strokeColor=#d6b656;movable=1;resizable=1;rotatable=1;deletable=1;editable=1;locked=0;connectable=1;" vertex="1" parent="1">
          <mxGeometry x="233" y="367" width="90" height="43" as="geometry" />
        </mxCell>
        <mxCell id="M4atq5LiG9OiCV3T2xGe-13" style="edgeStyle=orthogonalEdgeStyle;rounded=0;orthogonalLoop=1;jettySize=auto;html=1;entryX=0.217;entryY=0.919;entryDx=0;entryDy=0;entryPerimeter=0;fillColor=#fff2cc;strokeColor=#d6b656;movable=1;resizable=1;rotatable=1;deletable=1;editable=1;locked=0;connectable=1;" edge="1" parent="1" source="M4atq5LiG9OiCV3T2xGe-12" target="nI9pmFCx_meQ-iWq6jno-1">
          <mxGeometry relative="1" as="geometry" />
        </mxCell>
        <mxCell id="M4atq5LiG9OiCV3T2xGe-14" value="" style="shape=umlDestroy;whiteSpace=wrap;html=1;strokeWidth=3;targetShapes=umlLifeline;fillColor=#f8cecc;strokeColor=#FF3333;movable=1;resizable=1;rotatable=1;deletable=1;editable=1;locked=0;connectable=1;" vertex="1" parent="1">
          <mxGeometry x="414" y="270" width="34" height="38" as="geometry" />
        </mxCell>
        <mxCell id="M4atq5LiG9OiCV3T2xGe-17" style="edgeStyle=orthogonalEdgeStyle;rounded=0;orthogonalLoop=1;jettySize=auto;html=1;fillColor=#fff2cc;strokeColor=#d6b656;movable=1;resizable=1;rotatable=1;deletable=1;editable=1;locked=0;connectable=1;" edge="1" parent="1" source="M4atq5LiG9OiCV3T2xGe-16">
          <mxGeometry relative="1" as="geometry">
            <mxPoint x="456.00001220703126" y="239.5" as="targetPoint" />
          </mxGeometry>
        </mxCell>
        <mxCell id="M4atq5LiG9OiCV3T2xGe-16" value="&lt;div&gt;请求 2&lt;/div&gt;&lt;div&gt;hash：3&lt;/div&gt;" style="rounded=1;whiteSpace=wrap;html=1;fillColor=#fff2cc;strokeColor=#d6b656;movable=1;resizable=1;rotatable=1;deletable=1;editable=1;locked=0;connectable=1;" vertex="1" parent="1">
          <mxGeometry x="545.8" y="218" width="90" height="43" as="geometry" />
        </mxCell>
        <mxCell id="M4atq5LiG9OiCV3T2xGe-18" style="edgeStyle=orthogonalEdgeStyle;rounded=0;orthogonalLoop=1;jettySize=auto;html=1;startArrow=classicThin;startFill=1;endArrow=none;endFill=0;movable=1;resizable=1;rotatable=1;deletable=1;editable=1;locked=0;connectable=1;" edge="1" parent="1" source="M4atq5LiG9OiCV3T2xGe-19">
          <mxGeometry relative="1" as="geometry">
            <mxPoint x="345" y="513.3999938964844" as="targetPoint" />
          </mxGeometry>
        </mxCell>
        <mxCell id="M4atq5LiG9OiCV3T2xGe-19" value="" style="ellipse;whiteSpace=wrap;html=1;aspect=fixed;movable=1;resizable=1;rotatable=1;deletable=1;editable=1;locked=0;connectable=1;" vertex="1" parent="1">
          <mxGeometry x="226" y="577" width="238" height="238" as="geometry" />
        </mxCell>
        <mxCell id="M4atq5LiG9OiCV3T2xGe-20" value="0" style="text;html=1;align=center;verticalAlign=middle;resizable=1;points=[];autosize=1;strokeColor=none;fillColor=none;movable=1;rotatable=1;deletable=1;editable=1;locked=0;connectable=1;" vertex="1" parent="1">
          <mxGeometry x="342" y="536" width="25" height="26" as="geometry" />
        </mxCell>
        <mxCell id="M4atq5LiG9OiCV3T2xGe-21" value="10" style="text;html=1;align=center;verticalAlign=middle;resizable=1;points=[];autosize=1;strokeColor=none;fillColor=none;movable=1;rotatable=1;deletable=1;editable=1;locked=0;connectable=1;" vertex="1" parent="1">
          <mxGeometry x="317" y="536" width="31" height="26" as="geometry" />
        </mxCell>
        <mxCell id="M4atq5LiG9OiCV3T2xGe-22" value="节点 A&lt;div&gt;hash：0&lt;/div&gt;" style="rounded=1;whiteSpace=wrap;html=1;fillColor=#dae8fc;strokeColor=#6c8ebf;movable=1;resizable=1;rotatable=1;deletable=1;editable=1;locked=0;connectable=1;" vertex="1" parent="1">
          <mxGeometry x="175" y="495" width="90" height="43" as="geometry" />
        </mxCell>
        <mxCell id="M4atq5LiG9OiCV3T2xGe-23" style="edgeStyle=orthogonalEdgeStyle;rounded=0;orthogonalLoop=1;jettySize=auto;html=1;entryX=0.5;entryY=0;entryDx=0;entryDy=0;curved=1;fillColor=#dae8fc;strokeColor=#6c8ebf;movable=1;resizable=1;rotatable=1;deletable=1;editable=1;locked=0;connectable=1;" edge="1" parent="1" source="M4atq5LiG9OiCV3T2xGe-22" target="M4atq5LiG9OiCV3T2xGe-19">
          <mxGeometry relative="1" as="geometry" />
        </mxCell>
        <mxCell id="M4atq5LiG9OiCV3T2xGe-24" value="节点 B&lt;div&gt;hash：4&lt;/div&gt;" style="rounded=1;whiteSpace=wrap;html=1;fillColor=#dae8fc;strokeColor=#6c8ebf;movable=1;resizable=1;rotatable=1;deletable=1;editable=1;locked=0;connectable=1;" vertex="1" parent="1">
          <mxGeometry x="442" y="815" width="90" height="43" as="geometry" />
        </mxCell>
        <mxCell id="M4atq5LiG9OiCV3T2xGe-25" style="edgeStyle=orthogonalEdgeStyle;rounded=0;orthogonalLoop=1;jettySize=auto;html=1;entryX=1;entryY=1;entryDx=0;entryDy=0;curved=1;fillColor=#dae8fc;strokeColor=#6c8ebf;movable=1;resizable=1;rotatable=1;deletable=1;editable=1;locked=0;connectable=1;" edge="1" parent="1" source="M4atq5LiG9OiCV3T2xGe-24" target="M4atq5LiG9OiCV3T2xGe-19">
          <mxGeometry relative="1" as="geometry">
            <Array as="points">
              <mxPoint x="485" y="795" />
              <mxPoint x="441" y="795" />
              <mxPoint x="441" y="797" />
              <mxPoint x="429" y="797" />
            </Array>
          </mxGeometry>
        </mxCell>
        <mxCell id="M4atq5LiG9OiCV3T2xGe-26" value="节点 C&lt;div&gt;hash：8&lt;/div&gt;" style="rounded=1;whiteSpace=wrap;html=1;fillColor=#dae8fc;strokeColor=#6c8ebf;movable=1;resizable=1;rotatable=1;deletable=1;editable=1;locked=0;connectable=1;" vertex="1" parent="1">
          <mxGeometry x="92" y="616" width="90" height="43" as="geometry" />
        </mxCell>
        <mxCell id="M4atq5LiG9OiCV3T2xGe-27" style="edgeStyle=orthogonalEdgeStyle;rounded=0;orthogonalLoop=1;jettySize=auto;html=1;entryX=0.052;entryY=0.254;entryDx=0;entryDy=0;entryPerimeter=0;fillColor=#dae8fc;strokeColor=#6c8ebf;movable=1;resizable=1;rotatable=1;deletable=1;editable=1;locked=0;connectable=1;" edge="1" parent="1" source="M4atq5LiG9OiCV3T2xGe-26" target="M4atq5LiG9OiCV3T2xGe-19">
          <mxGeometry relative="1" as="geometry" />
        </mxCell>
        <mxCell id="M4atq5LiG9OiCV3T2xGe-28" value="&lt;div&gt;请求 1&lt;/div&gt;&lt;div&gt;hash：6&lt;/div&gt;" style="rounded=1;whiteSpace=wrap;html=1;fillColor=#fff2cc;strokeColor=#d6b656;movable=1;resizable=1;rotatable=1;deletable=1;editable=1;locked=0;connectable=1;" vertex="1" parent="1">
          <mxGeometry x="233" y="858" width="90" height="43" as="geometry" />
        </mxCell>
        <mxCell id="M4atq5LiG9OiCV3T2xGe-29" style="edgeStyle=orthogonalEdgeStyle;rounded=0;orthogonalLoop=1;jettySize=auto;html=1;entryX=0.217;entryY=0.919;entryDx=0;entryDy=0;entryPerimeter=0;fillColor=#fff2cc;strokeColor=#d6b656;movable=1;resizable=1;rotatable=1;deletable=1;editable=1;locked=0;connectable=1;" edge="1" parent="1" source="M4atq5LiG9OiCV3T2xGe-28" target="M4atq5LiG9OiCV3T2xGe-19">
          <mxGeometry relative="1" as="geometry" />
        </mxCell>
        <mxCell id="M4atq5LiG9OiCV3T2xGe-31" style="edgeStyle=orthogonalEdgeStyle;rounded=0;orthogonalLoop=1;jettySize=auto;html=1;fillColor=#fff2cc;strokeColor=#d6b656;movable=1;resizable=1;rotatable=1;deletable=1;editable=1;locked=0;connectable=1;" edge="1" parent="1" source="M4atq5LiG9OiCV3T2xGe-32">
          <mxGeometry relative="1" as="geometry">
            <mxPoint x="456.00001220703126" y="730.5" as="targetPoint" />
          </mxGeometry>
        </mxCell>
        <mxCell id="M4atq5LiG9OiCV3T2xGe-32" value="&lt;div&gt;请求 2&lt;/div&gt;&lt;div&gt;hash：3&lt;/div&gt;" style="rounded=1;whiteSpace=wrap;html=1;fillColor=#fff2cc;strokeColor=#d6b656;movable=1;resizable=1;rotatable=1;deletable=1;editable=1;locked=0;connectable=1;" vertex="1" parent="1">
          <mxGeometry x="545.8" y="709" width="90" height="43" as="geometry" />
        </mxCell>
        <mxCell id="M4atq5LiG9OiCV3T2xGe-33" value="" style="ellipse;whiteSpace=wrap;html=1;aspect=fixed;" vertex="1" parent="1">
          <mxGeometry x="383" y="579" width="18" height="18" as="geometry" />
        </mxCell>
        <mxCell id="M4atq5LiG9OiCV3T2xGe-66" value="" style="ellipse;whiteSpace=wrap;html=1;aspect=fixed;" vertex="1" parent="1">
          <mxGeometry x="244" y="767" width="18" height="18" as="geometry" />
        </mxCell>
        <mxCell id="M4atq5LiG9OiCV3T2xGe-67" value="" style="ellipse;whiteSpace=wrap;html=1;aspect=fixed;" vertex="1" parent="1">
          <mxGeometry x="297" y="802" width="18" height="18" as="geometry" />
        </mxCell>
        <mxCell id="M4atq5LiG9OiCV3T2xGe-68" value="" style="ellipse;whiteSpace=wrap;html=1;aspect=fixed;" vertex="1" parent="1">
          <mxGeometry x="367" y="802" width="18" height="18" as="geometry" />
        </mxCell>
        <mxCell id="M4atq5LiG9OiCV3T2xGe-69" value="" style="ellipse;whiteSpace=wrap;html=1;aspect=fixed;" vertex="1" parent="1">
          <mxGeometry x="408" y="780" width="18" height="18" as="geometry" />
        </mxCell>
        <mxCell id="M4atq5LiG9OiCV3T2xGe-70" value="" style="ellipse;whiteSpace=wrap;html=1;aspect=fixed;" vertex="1" parent="1">
          <mxGeometry x="446" y="734" width="18" height="18" as="geometry" />
        </mxCell>
        <mxCell id="M4atq5LiG9OiCV3T2xGe-71" value="" style="ellipse;whiteSpace=wrap;html=1;aspect=fixed;" vertex="1" parent="1">
          <mxGeometry x="454" y="672" width="18" height="18" as="geometry" />
        </mxCell>
        <mxCell id="M4atq5LiG9OiCV3T2xGe-72" value="" style="ellipse;whiteSpace=wrap;html=1;aspect=fixed;" vertex="1" parent="1">
          <mxGeometry x="428" y="616" width="18" height="18" as="geometry" />
        </mxCell>
        <mxCell id="M4atq5LiG9OiCV3T2xGe-78" value="" style="ellipse;whiteSpace=wrap;html=1;aspect=fixed;" vertex="1" parent="1">
          <mxGeometry x="299" y="576" width="18" height="18" as="geometry" />
        </mxCell>
        <mxCell id="M4atq5LiG9OiCV3T2xGe-79" value="" style="ellipse;whiteSpace=wrap;html=1;aspect=fixed;" vertex="1" parent="1">
          <mxGeometry x="249" y="608" width="18" height="18" as="geometry" />
        </mxCell>
        <mxCell id="M4atq5LiG9OiCV3T2xGe-80" value="" style="ellipse;whiteSpace=wrap;html=1;aspect=fixed;" vertex="1" parent="1">
          <mxGeometry x="222" y="654" width="18" height="18" as="geometry" />
        </mxCell>
        <mxCell id="M4atq5LiG9OiCV3T2xGe-81" value="" style="ellipse;whiteSpace=wrap;html=1;aspect=fixed;" vertex="1" parent="1">
          <mxGeometry x="218" y="721.5" width="18" height="18" as="geometry" />
        </mxCell>
      </root>
    </mxGraphModel>
  </diagram>
</mxfile>
